<?xml version="1.0" encoding="UTF-8"?>
<svg id="Mullvad_VPN_Logo_Positive" width="252.6" height="252.6" version="1.1" viewBox="0 0 252.6 252.6" xml:space="preserve" xmlns="http://www.w3.org/2000/svg">
<style type="text/css">
	.st0{fill-rule:evenodd;clip-rule:evenodd;fill:#192E45;}
	.st1{fill-rule:evenodd;clip-rule:evenodd;fill:#D0933A;}
	.st2{fill-rule:evenodd;clip-rule:evenodd;fill:#FFCC86;}
	.st3{fill-rule:evenodd;clip-rule:evenodd;fill:#FDD321;}
	.st4{fill:#FFFFFF;}
	.st5{fill:#1D2A3A;}
	.st6{fill:#192E45;}
</style>
<g id="Logo" transform="translate(-73.7,-73.7)">
	<path id="bg" class="st0" d="m73.7 200c0 69.8 56.6 126.3 126.3 126.3s126.3-56.5 126.3-126.3-56.5-126.3-126.3-126.3-126.3 56.5-126.3 126.3z"/>
	<path id="Mullvad_Fur" class="st1" d="m90.6 184.9 9.6-13.4c0 0.1-0.6 19.3-0.6 19.3l2.7-14.5c8 16.2 27.6 38.6 45.5 50.6 1.9 1.3 3.5 2.7 4.6 4.1 2.3 0.9 4.6 1.4 6.9 1.8 1.2 0.2 2.5 0.3 3.7 0.4s2.5 0.1 3.7 0.1 2.4-0.1 3.6-0.2 2.4-0.3 3.6-0.5 2.4-0.4 3.5-0.8c1.2-0.3 2.3-0.6 3.5-1 1.1-0.3 2.3-0.8 3.4-1.2 1.1-0.5 2.2-0.9 3.3-1.5s2.2-1.1 3.2-1.7c1.1-0.5 2.1-1.2 3.2-1.8s2.1-1.3 3.2-1.9 2.1-1.3 3.1-1.9c1-0.7 2.1-1.3 3.1-2s2.1-1.3 3.2-2l1-0.6 0.5 0.3 7.2 4.8-7.3-1.9c-0.7 0.8-1.4 1.6-2.2 2.4-0.9 0.9-1.9 1.8-2.8 2.7-1 0.8-2 1.7-3.1 2.4-1.1 0.8-2.1 1.5-3.3 2.2-2.2 1.4-4.6 2.6-7.1 3.6-1.2 0.5-2.5 1-3.7 1.4-1.3 0.4-2.5 0.8-3.8 1.1s-2.6 0.6-3.9 0.8-2.6 0.3-3.9 0.5c-2.6 0.1-5.3 0.1-7.9-0.3-1.3-0.2-2.6-0.4-3.9-0.7s-2.5-0.7-3.7-1.1c-2.1-0.8-4.2-1.8-6.1-3 0 0-6.9 1-4.1 6.2s7 4.7 5 10.8c-1.4 3.3-3.4 6.5-5.6 9.5-4.6 6.2-11.8 11.7-11.1 15 32.7 40.3 106.4 34.7 134.4-1.3-0.4-5.2-8.6-7.7-14.3-20.4 1.6 0.5 4 1.2 4 1.1s-6.8-11.1-7.1-12.2l4.4 0.3s-5.8-7.2-6-7.9l5.9-0.8s-7.4-8.5-7.5-9.2l7.5 1.2-8.2-9.9h3.9l-4.6-6.7c-0.8-0.3-1.6-0.5-2.4-0.7l-3-0.9c-11.2-3.5-21.8-6.7-32-13.1-14.3-8.9-27.1-19.8-36.7-28.3l-19.3-9.4c-18.5-1.4-35.9-0.9-46.5 1.2l6.8-11.6-10.4 12.5c-0.7-0.2-0.9-0.6-0.9-0.6l0.7-15.4-3.3 13.9c-1-0.5-2.2-0.7-3.4-0.7-4.6 0-8.3 3.7-8.3 8.3 0 4.2 3.1 7.7 7.2 8.2z"/>
	<path id="Mullvad_Nose" class="st2" d="m102.2 154.5c-1-0.4-2.2-0.7-3.3-0.7-4.6 0-8.3 3.7-8.3 8.3 0 4 2.9 7.4 6.7 8.2h0.2c2.5-0.8 7.5-7.5 6.7-11.7-0.3-1.5-1-2.9-2-4.1z"/>
	<path id="Mullvad_Helmet" class="st3" d="m175.1 143.8c-1.5-4.1-1.1-9.4 1-14.4 3-6.9 8.7-11.5 14.1-11.5 1.1 0 2.1 0.2 3.1 0.6 3.1-2.8 6.7-5.1 10.7-6.7 22.1-8.8 54.4 6.9 62.7 28.6 4 10.5 2.8 22-0.6 32.5-2.8 8.6-13 21-9.2 30.4-1.5-0.4-33.1-10.2-41.9-15.8-14.1-8.8-26.8-19.6-36.3-28l-0.3-0.3-32.1-15.2c-0.4-0.2-0.8-0.4-1.1-0.6 4.6 0 22.1 2.1 29.9 0.4"/>
	<g id="Helmet_Lamp">
		<path class="st4" d="m184.6 147.4c-0.9 0-1.7-0.2-2.3-0.5-1.6-0.7-2.8-2-3.6-4-1.4-3.4-1-8.1 0.9-12.5 2.5-5.7 7.2-9.7 11.5-9.7 0.8 0 1.6 0.2 2.4 0.5 2.1 0.9 3.6 3 4.1 6 0.6 3.2 0.1 6.9-1.5 10.4-2.5 5.7-7.3 9.8-11.5 9.8z"/>
		
			<path class="st5" d="m191 122.3c0.6 0 1.2 0.1 1.8 0.4 1.6 0.7 2.8 2.5 3.2 4.9 0.5 2.9 0.1 6.3-1.4 9.5-2.2 5.1-6.5 8.8-10.1 8.8-0.6 0-1.2-0.1-1.7-0.3-1.5-0.6-2.3-2-2.7-3.1-1.2-3-0.9-7.4 0.8-11.4 2.3-5.1 6.5-8.8 10.1-8.8m0-3c-4.8 0-10.1 4.4-12.9 10.7-2.1 4.7-2.4 9.8-0.9 13.7 0.9 2.3 2.4 3.9 4.3 4.8 0.9 0.4 1.9 0.6 3 0.6 4.8 0 10.1-4.4 12.8-10.7 1.7-3.8 2.2-7.8 1.6-11.3s-2.4-6-5-7.1c-0.8-0.5-1.8-0.7-2.9-0.7z"/>
		
	</g>
</g>

</svg>
